<svg xmlns="http://www.w3.org/2000/svg" xmlns:xlink="http://www.w3.org/1999/xlink" version="1.1" x="0px" y="0px" viewBox="0 0 100 125" enable-background="new 0 0 100 100" xml:space="preserve"><g><path fill="#000000" d="M96.6760254,66.1394577l-9.392067-21.5708351c-0.0662613-0.1483192-0.100975-0.3155937-0.100975-0.4797096   C87.0472641,21.0947666,68.3420563,2.4999955,45.2910881,2.4999955c-23.1393471,0-41.8950539,18.733633-41.8950539,41.8414078   c0,14.1133385,6.9966865,26.5950584,17.717392,34.1724663c0.4292412,0.2998199,0.6880112,0.7889862,0.6880112,1.3160248v17.6700974   h47.2601471v-9.7171402c0-0.8868179,0.7195587-1.6031952,1.6032028-1.6031952h12.2324066   c0.6406708,0,1.1740036-0.482872,1.2371445-1.117218c0.252449-2.4931793,0.8836365-8.8650131,1.5085068-16.0510864   c0.0568619-0.6406631,0.5933533-1.132988,1.2371826-1.132988h8.6567078   C96.4330139,67.8783646,97.0326462,66.9568329,96.6760254,66.1394577z M57.4351234,49.8642921   c-5.4661026,0.1925087-17.5564728,3.6640396-16.2562294,14.5709496   c1.1487274,9.6445465-12.8383274,11.7621841-14.5236263,1.5243225   c-2.0860691-12.6742477-13.4380007-4.2510529-14.1007004-21.2331467   c-0.7100859-18.2065964,13.4726734-33.5381393,31.6760921-34.2482262   c13.1539574-0.5143995,25.0487061,6.6243258,30.5305252,17.6795616   C79.4604187,37.6413383,80.6912003,49.0437393,57.4351234,49.8642921z"/><path fill="#000000" d="M55.6393394,27.2707825c0.4132919,0,0.8204193-0.170433,1.1172142-0.4607544   c0.2933998-0.2964859,0.4607544-0.7036133,0.4607544-1.1172142c0-0.4163742-0.1673546-0.8204193-0.4607544-1.1172142   c-0.2967949-0.2934036-0.7005348-0.4607544-1.1172142-0.4607544c-0.4166832,0-0.8238106,0.1673508-1.1172142,0.4607544   c-0.2934036,0.2967949-0.4607544,0.70084-0.4607544,1.1172142c0,0.4136009,0.1673508,0.8207283,0.4607544,1.1172142   C54.8189163,27.1003494,55.2226563,27.2707825,55.6393394,27.2707825z"/><path fill="#000000" d="M32.8817711,27.4729595c0.3094292,0.3753834,0.7606277,0.5710888,1.2152214,0.5710888   c0.3535004,0,0.710083-0.1198883,1.0034866-0.3627472c0.6721802-0.5556793,0.7667961-1.549614,0.2114258-2.2217922   c-0.5584526-0.6724854-1.5526962-0.7640209-2.2248764-0.2083416h0.0030823   C32.4179344,25.8065395,32.3233185,26.8007813,32.8817711,27.4729595z"/><path fill="#000000" d="M31.4458809,41.0024948c-0.8047009,0.3313103-1.18964,1.2559013-0.8583279,2.0606041   c0.2524128,0.6093063,0.839529,0.9785271,1.4580784,0.9785271c0.20187,0,0.4037399-0.0379105,0.6028328-0.1198883   c0.8047028-0.3316231,1.18964-1.2562103,0.8583298-2.0609131C33.1720924,41.0561218,32.2505836,40.6708755,31.4458809,41.0024948z"/><path fill="#000000" d="M36.1357117,45.4491615c-0.7920647-0.3630562-1.729599-0.0126381-2.0923462,0.7794266   c-0.3599739,0.7920685-0.0126381,1.7296028,0.7825127,2.09235c0.211422,0.0946159,0.4323997,0.1420784,0.6533775,0.1420784   c0.5994415,0,1.1708374-0.3439484,1.4358864-0.9245911C37.2781982,46.7460518,36.9277802,45.8119087,36.1357117,45.4491615z"/><path fill="#000000" d="M20.4694481,46.5978088c-0.8142548,0.318676-1.2118301,1.2371025-0.8931541,2.0482788   c0.2462502,0.6216316,0.839529,1.0004044,1.4707165,1.0004044c0.1926231,0,0.3883266-0.0379066,0.5775604-0.1103325   c0.8111744-0.3220673,1.2087479-1.2374115,0.8900719-2.0482788C22.1959667,46.6767082,21.2806225,46.2791328,20.4694481,46.5978088   z"/><path fill="#000000" d="M20.7884331,42.5234451c-0.0600986-0.8709641-0.8142567-1.5243416-1.6855297-1.464241   c-0.8678818,0.0597878-1.5240326,0.8142548-1.4611607,1.6852188c0.0570164,0.8299751,0.7479935,1.4676361,1.571804,1.4676361   c0.0348263,0,0.0724258-0.0033913,0.1103344-0.0033913C20.1951542,44.1457939,20.8482227,43.3913307,20.7884331,42.5234451z"/><path fill="#000000" d="M24.9731293,32.3865433c-0.7418289,0.4545898-0.9785252,1.4266434-0.5239334,2.1681633   c0.296793,0.489109,0.817337,0.7575493,1.347744,0.7575493c0.2807674,0,0.5646172-0.0727348,0.8204212-0.2305298   c0.7449112-0.4542847,0.9782162-1.4232559,0.5270157-2.1681671C26.6897869,32.1689568,25.7180424,31.9322605,24.9731293,32.3865433   z"/><path fill="#000000" d="M22.4736538,36.259037c-0.6755676-0.5522881-1.6695042-0.4545898-2.2217922,0.2209778   c-0.5522881,0.6752586-0.4545898,1.6695023,0.2209778,2.2217903c0.2934036,0.2397766,0.646904,0.3565826,1.0004063,0.3565826   c0.4542828,0,0.9088726-0.1987839,1.221384-0.5806427C23.2469196,37.8052597,23.1458302,36.8113251,22.4736538,36.259037z"/><path fill="#000000" d="M30.7989769,38.4839096c0.8678818-0.0946159,1.4925957-0.8740463,1.3979797-1.7419281   c-0.0946159-0.8647995-0.8709641-1.4929047-1.7388458-1.3982887c-0.8648014,0.0946159-1.4929066,0.8743553-1.3979816,1.7388458   c0.0881443,0.8111725,0.7698765,1.4078445,1.5684147,1.4078445C30.6852512,38.4903831,30.7422676,38.4869919,30.7989769,38.4839096   z"/><path fill="#000000" d="M46.6671104,42.5360832c-0.6882057-0.5365715-1.6790581-0.4132919-2.2156296,0.2746048   c-0.5365677,0.6848106-0.4132919,1.6790543,0.2746048,2.2122345c0.2872391,0.2274513,0.6281052,0.3347015,0.9689713,0.3347015   c0.4669189,0,0.9341431-0.2083397,1.2432671-0.6059151h0.0033913   C47.4748955,44.0635071,47.3550072,43.0726547,46.6671104,42.5360832z"/><path fill="#000000" d="M44.8903542,24.0864925c0.8678818-0.0758171,1.5113983-0.839529,1.4389725-1.7104931   c-0.0788994-0.8678837-0.8426094-1.508625-1.710495-1.4328079c-0.8678818,0.0727348-1.5117035,0.839529-1.4358864,1.7074108   c0.0724258,0.8204193,0.7606277,1.4423618,1.5714951,1.4423618C44.7988205,24.0929642,44.845974,24.0895729,44.8903542,24.0864925z   "/><path fill="#000000" d="M45.4740791,37.0985641c-0.7575493,0.4323997-1.0225983,1.3949013-0.5901947,2.1521416   c0.2903214,0.5112953,0.8238068,0.7985382,1.3727074,0.7985382c0.2619667,0,0.530407-0.0662651,0.7763481-0.2083435   c0.7575493-0.4290085,1.0225983-1.3918152,0.593586-2.1490555C47.1941261,36.9342957,46.2316284,36.6692467,45.4740791,37.0985641z   "/><path fill="#000000" d="M50.3815002,24.9608459c0.646904,0,1.2528191-0.4009628,1.4833488-1.0417042   c0.2998772-0.8204212-0.126358-1.7262115-0.9436989-2.0226974c-0.8204193-0.296793-1.7262077,0.1291351-2.0230026,0.9467812   c-0.2964859,0.8204193,0.1263618,1.7262115,0.9467812,2.0226955   C50.0218315,24.9291019,50.2049026,24.9608459,50.3815002,24.9608459z"/><path fill="#000000" d="M37.2402916,30.8212109c-0.8395271-0.2240601-1.7074127,0.2715206-1.9345512,1.1141319   c-0.2240601,0.8426113,0.2712135,1.7074108,1.1138229,1.9345531c0.1389961,0.0379066,0.2746048,0.0536232,0.4105186,0.0536232   c0.6974487,0,1.3348007-0.4638367,1.5240326-1.1677551C38.5815659,31.9165421,38.082901,31.0486603,37.2402916,30.8212109z"/><path fill="#000000" d="M30.6781635,33.0210991c0.1389961,0.0379105,0.2746029,0.053627,0.4105167,0.053627   c0.6974506,0,1.3348007-0.4638367,1.5240364-1.167757c0.2274475-0.83922-0.2712135-1.7071037-1.1138248-1.9345512   c-0.839529-0.2240601-1.7074108,0.2715206-1.9345531,1.11413C29.3402805,31.9291592,29.8355522,32.7939606,30.6781635,33.0210991z"/><path fill="#000000" d="M40.5632706,45.5786018c-0.8235016,0.2838516-1.2623749,1.1834755-0.9782181,2.0069809   c0.2271423,0.6533775,0.8395309,1.0635872,1.4929085,1.0635872c0.1704292,0,0.3439445-0.0283546,0.5143776-0.0850639   c0.8235016-0.2841568,1.2623749-1.1834755,0.9782181-2.0072861C42.2867088,45.7330093,41.3870811,45.294445,40.5632706,45.5786018z   "/><path fill="#000000" d="M42.924057,33.2291527c-0.7449112-0.4511986-1.7169647-0.211422-2.165081,0.5334892   c-0.4512024,0.7479935-0.211422,1.7169647,0.5334892,2.1681633c0.2554932,0.1547165,0.5365715,0.2271423,0.8142548,0.2271423   c0.5331802,0,1.0571175-0.2712135,1.3539085-0.76371C43.9087486,34.6493225,43.668972,33.677578,42.924057,33.2291527z"/><path fill="#000000" d="M40.6896324,23.379488c-0.2998772-0.8204193-1.2056694-1.2401848-2.0260887-0.9433899   c-0.817337,0.2995663-1.2401848,1.2053566-0.9406166,2.0260849c0.2336121,0.637352,0.8395271,1.0349255,1.4833527,1.0349255   c0.179985,0,0.3630562-0.031435,0.5430412-0.0946159C40.5666618,25.1026173,40.9864235,24.197134,40.6896324,23.379488z"/><path fill="#000000" d="M24.3767681,51.0888557c-0.4166813,0-0.8207283,0.1670418-1.11413,0.4607544   c-0.2937126,0.2934036-0.4638367,0.700531-0.4638367,1.1172142c0,0.4163742,0.1701241,0.8204193,0.4638367,1.1138229   c0.2934017,0.2937126,0.700531,0.4641457,1.11413,0.4641457c0.4163742,0,0.8235035-0.170433,1.1169071-0.4641457   c0.2937107-0.2934036,0.4610615-0.700531,0.4610615-1.1138229c0-0.4136009-0.1673508-0.8207283-0.4610615-1.1172142   C25.2002716,51.2558975,24.7931423,51.0888557,24.3767681,51.0888557z"/><path fill="#000000" d="M67.093132,33.7728119c0.9204254-3.4334087,1.8700943-8.5929909,0.1384125-11.0300579   c-0.9310608-1.3098373-2.4532471-1.8001785-4.3172188-1.3375759c-2.1416588,0.5322571-3.0591621,1.8679829-3.4518051,2.8945866   c-1.1091995,2.9010944,0.6331902,7.1320801,2.1440506,9.967474c-1.6492386-2.2313271-4.5053406-5.3670197-7.5350304-5.3670197   c-1.0965652,0-2.6816216,0.4136009-4.0050201,2.3839035c-1.1471062,1.7080269-0.7390556,3.0643997-0.3935661,3.7205544   c1.4499512,2.7545662,7.2215919,3.42659,10.4147453,3.5849266c0.0223427,0.1365891,0.0480766,0.2733307,0.0830574,0.4099197   c0.5334892,2.08218,2.4057846,3.5365601,4.5533028,3.5365601c0.392334,0,0.7852859-0.0496216,1.1680679-0.147625   c1.2167587-0.3115883,2.239357-1.0783844,2.8794785-2.1589203c0.6401291-1.0805397,0.8210373-2.3459969,0.5094528-3.5621414   C68.9603043,35.4138641,68.1524048,34.3909607,67.093132,33.7728119z M52.4627533,33.5324173   c-0.0024681-0.0366745,0.0329781-0.2046432,0.2234421-0.4884911c0.6635475-0.9877701,1.1877899-0.9877701,1.3853455-0.9877701   c1.2179947,0,2.9013634,1.5101624,4.3199959,3.2323685C55.146225,34.9371796,52.6834221,34.1697693,52.4627533,33.5324173z    M64.1877975,32.3976364c-1.3298721-2.5984077-2.3401413-5.498848-1.7773743-6.9704876   c0.126976-0.3316212,0.3852463-0.7405968,1.2651482-0.9591103c0.2101898-0.052393,0.3963432-0.0788975,0.5526009-0.0788975   c0.3017197,0,0.3642883,0.0881443,0.4305496,0.1815281C65.4101028,25.6271687,65.0448914,28.9772682,64.1877975,32.3976364z"/></g></svg>