<svg xmlns="http://www.w3.org/2000/svg" xmlns:xlink="http://www.w3.org/1999/xlink" xmlns:sketch="http://www.bohemiancoding.com/sketch/ns" viewBox="0 0 44 55" version="1.1" x="0px" y="0px"><title>Archive</title><desc>Created with Sketch.</desc><g stroke="none" stroke-width="1" fill="none" fill-rule="evenodd" sketch:type="MSPage"><g sketch:type="MSArtboardGroup" transform="translate(-641.000000, -531.000000)"><path d="M653.000741,534 C648.582054,534 645,537.583431 645,542.000741 L645,566.009821 C645,568.213536 646.785246,570 648.990179,570 L677.009821,570 C679.213536,570 681,568.214754 681,566.009821 L681,542.000741 C681,537.582054 677.416569,534 672.999259,534 L653.000741,534 Z M652,536 C651,536 649.736713,537.322891 649.736713,537.322891 C649.329838,537.696848 649.439813,538 649.996535,538 L676.003465,538 C676.553836,538 676.671875,537.6875 676.263287,537.322891 C676.263287,537.322891 675,536 674,536 C673,536 653,536 652,536 Z M660.998101,548 C659.89458,548 659,548.88773 659,550 L659,552 L667,552 L667,550 C667,548.895431 666.113294,548 665.001899,548 L660.998101,548 Z M661.723336,562.468003 C662.428418,563.314102 663.57356,563.311728 664.276664,562.468003 L671.723336,553.531997 C672.428418,552.685898 672.101788,552 671.009205,552 L654.990795,552 C653.891309,552 653.57356,552.688272 654.276664,553.531997 L661.723336,562.468003 Z" fill="#000000" sketch:type="MSShapeGroup"/></g></g></svg>